<?xml version="1.0" encoding="UTF-8"?>
<svg width="39px" height="32px" viewBox="0 0 39 32" version="1.1" xmlns="http://www.w3.org/2000/svg" xmlns:xlink="http://www.w3.org/1999/xlink">
    <title>icon-qa</title>
    <defs>
        <polygon id="path-1" points="0 0 39 0 39 31.6216216 0 31.6216216"></polygon>
    </defs>
    <g id="Page-1" stroke="none" stroke-width="1" fill="none" fill-rule="evenodd">
        <g id="icon-qa">
            <g id="Fill-1-Clipped">
                <mask id="mask-2" fill="white">
                    <use xlink:href="#path-1"></use>
                </mask>
                <g id="path-1"></g>
                <path d="M30.9266046,24.3621853 C30.7289192,24.4815094 30.5879493,24.6817004 30.5398676,24.9110763 C30.4916371,25.1409082 30.5400165,25.3822926 30.6727992,25.5736672 C31.6378554,26.9643632 32.8704121,28.118235 34.3356362,29.0033616 C34.5790215,29.1505027 34.6189158,29.3979672 34.5790215,29.565173 C34.5298979,29.7720521 34.3703205,29.9032327 34.1523901,29.9161531 C30.8728663,30.1081358 27.4660677,29.0954768 24.5604789,27.0630146 C24.4220396,26.9669473 24.2609736,26.9161775 24.0948464,26.9161775 C24.0460205,26.9161775 23.996748,26.9204337 23.9473266,26.929402 C22.442357,27.2090916 20.9461701,27.3507605 19.5005954,27.3507605 C9.65666509,27.3507605 1.64787474,21.5929537 1.64787474,14.5158933 C1.64787474,7.43959292 9.65666509,1.68269811 19.5005954,1.68269811 C29.3439303,1.68269811 37.3521253,7.43989693 37.3521253,14.5165013 C37.3521253,18.3169366 35.0102675,21.9054765 30.9266046,24.3621853 M35.1746084,27.5549036 C34.170551,26.9480986 33.2901959,26.1930886 32.5557231,25.309026 C36.6538253,22.5659393 39,18.6405557 39,14.5165013 C39,6.51205689 30.2524199,0 19.5,0 C18.9240626,0 18.3689655,0.0297930289 17.8495946,0.0623221522 L16.2615614,0.21660748 C10.0788307,0.990162194 4.73983557,3.96733701 1.97491908,8.18928281 L1.16676082,9.61646009 L1.16214617,9.6254284 C0.391053925,11.2222435 0,12.8677004 0,14.5165013 C0,22.5212497 8.7478778,29.0334586 19.5005954,29.0334586 C20.9379828,29.0334586 22.4215167,28.9027341 23.9107072,28.6447812 C26.7899478,30.57996 30.1174043,31.621652 33.3772787,31.621652 C33.668299,31.621652 33.9591705,31.6132917 34.2487023,31.5965712 C35.1990213,31.5395692 35.9564185,30.8985631 36.178368,29.9635788 C36.4056765,29.0059457 36.0116454,28.060473 35.1746084,27.5549036" id="Fill-1" fill="#231916" fill-rule="nonzero" mask="url(#mask-2)"></path>
            </g>
            <g id="ion-help---Ionicons" transform="translate(15.000000, 7.000000)" fill="#000000" fill-rule="nonzero">
                <path d="M8.4765625,1.09375 C9.4921875,1.875 10,2.95572917 10,4.3359375 C10,5.14322917 9.75260417,5.88541667 9.2578125,6.5625 C9.0234375,6.84895833 8.50260417,7.31770833 7.6953125,7.96875 L6.875,8.515625 C6.484375,8.828125 6.22395833,9.19270833 6.09375,9.609375 C6.015625,9.84375 5.9765625,10.2213542 5.9765625,10.7421875 C5.9765625,10.8984375 5.88541667,10.9765625 5.703125,10.9765625 L3.28125,10.9765625 C3.09895833,10.9765625 3.0078125,10.9114583 3.0078125,10.78125 C3.05989583,9.58333333 3.25520833,8.72395833 3.59375,8.203125 C3.77604167,7.94270833 4.04947917,7.65625 4.4140625,7.34375 C4.77864583,7.03125 5.10416667,6.78385417 5.390625,6.6015625 L5.8203125,6.328125 C6.10677083,6.09375 6.30208333,5.8984375 6.40625,5.7421875 C6.71875,5.29947917 6.875,4.8828125 6.875,4.4921875 C6.875,3.91927083 6.73177083,3.45052083 6.4453125,3.0859375 C6.0546875,2.6171875 5.52083333,2.3828125 4.84375,2.3828125 C4.19270833,2.3828125 3.671875,2.6953125 3.28125,3.3203125 C3.09895833,3.60677083 3.0078125,4.16666667 3.0078125,5 L0,5 C0,2.94270833 0.572916667,1.53645833 1.71875,0.78125 C2.47395833,0.260416667 3.45052083,0 4.6484375,0 C6.23697917,0 7.51302083,0.364583333 8.4765625,1.09375 Z M4.453125,12.5390625 C5,12.5651042 5.44270833,12.7473958 5.78125,13.0859375 C6.11979167,13.4244792 6.27604167,13.8671875 6.25,14.4140625 C6.22395833,14.9609375 6.02864583,15.3971354 5.6640625,15.7226562 C5.29947917,16.0481771 4.85677083,16.1979167 4.3359375,16.171875 C3.81510417,16.1458333 3.38541667,15.9700521 3.046875,15.6445312 C2.70833333,15.3190104 2.55208333,14.8828125 2.578125,14.3359375 C2.60416667,13.7890625 2.79296875,13.3463542 3.14453125,13.0078125 C3.49609375,12.6692708 3.93229167,12.5130208 4.453125,12.5390625 Z" id="形狀"></path>
            </g>
        </g>
    </g>
</svg>