<?xml version="1.0" encoding="UTF-8"?>
<svg width="16px" height="29px" viewBox="0 0 16 29" version="1.1" xmlns="http://www.w3.org/2000/svg" xmlns:xlink="http://www.w3.org/1999/xlink">
    <title>arrow-left - simple-line-icons</title>
    <g id="組件" stroke="none" stroke-width="1" fill="none" fill-rule="evenodd">
        <g id="web-header-login" transform="translate(-39, -36)" fill="#000000" fill-rule="nonzero">
            <g id="arrow-left---simple-line-icons" transform="translate(39.4805, 36.75)">
                <path d="M14.0820312,0 C14.2096354,0 14.328125,0.0227864583 14.4375,0.068359375 C14.546875,0.113932292 14.6471354,0.182291667 14.7382812,0.2734375 C14.9205729,0.455729167 15.0117188,0.679036458 15.0117188,0.943359375 C15.0117188,1.20768229 14.9205729,1.43098958 14.7382812,1.61328125 L2.26953125,14.0820312 L14.5742188,26.3867188 C14.7565104,26.5690104 14.8476562,26.7877604 14.8476562,27.0429688 C14.8476562,27.2981771 14.7565104,27.5169271 14.5742188,27.6992188 C14.3919271,27.8815104 14.1686198,27.9726562 13.9042969,27.9726562 C13.639974,27.9726562 13.4166667,27.8815104 13.234375,27.6992188 L0.2734375,14.7382812 C0.0911458333,14.5559896 0,14.3372396 0,14.0820312 C0,13.8268229 0.0911458333,13.6080729 0.2734375,13.4257812 L13.4257812,0.2734375 C13.5169271,0.182291667 13.6217448,0.113932292 13.7402344,0.068359375 C13.858724,0.0227864583 13.9726562,0 14.0820312,0 Z" id="路徑"></path>
            </g>
        </g>
    </g>
</svg>