<?xml version="1.0" encoding="UTF-8"?>
<svg width="39px" height="32px" viewBox="0 0 39 32" version="1.1" xmlns="http://www.w3.org/2000/svg" xmlns:xlink="http://www.w3.org/1999/xlink">
    <title>群組</title>
    <defs>
        <polygon id="path-1" points="0 0 39 0 39 31.6216216 0 31.6216216"></polygon>
    </defs>
    <g id="組件" stroke="none" stroke-width="1" fill="none" fill-rule="evenodd">
        <g id="web-header-login" transform="translate(-1362, -35)">
            <g id="群組" transform="translate(1362, 35)">
                <g>
                    <mask id="mask-2" fill="white">
                        <use xlink:href="#path-1"></use>
                    </mask>
                    <g id="Clip-2"></g>
                    <path d="M30.9266046,24.3621853 C30.7289192,24.4815094 30.5879493,24.6817004 30.5398676,24.9110763 C30.4916371,25.1409082 30.5400165,25.3822926 30.6727992,25.5736672 C31.6378554,26.9643632 32.8704121,28.118235 34.3356362,29.0033616 C34.5790215,29.1505027 34.6189158,29.3979672 34.5790215,29.565173 C34.5298979,29.7720521 34.3703205,29.9032327 34.1523901,29.9161531 C30.8728663,30.1081358 27.4660677,29.0954768 24.5604789,27.0630146 C24.4220396,26.9669473 24.2609736,26.9161775 24.0948464,26.9161775 C24.0460205,26.9161775 23.996748,26.9204337 23.9473266,26.929402 C22.442357,27.2090916 20.9461701,27.3507605 19.5005954,27.3507605 C9.65666509,27.3507605 1.64787474,21.5929537 1.64787474,14.5158933 C1.64787474,7.43959292 9.65666509,1.68269811 19.5005954,1.68269811 C29.3439303,1.68269811 37.3521253,7.43989693 37.3521253,14.5165013 C37.3521253,18.3169366 35.0102675,21.9054765 30.9266046,24.3621853 M35.1746084,27.5549036 C34.170551,26.9480986 33.2901959,26.1930886 32.5557231,25.309026 C36.6538253,22.5659393 39,18.6405557 39,14.5165013 C39,6.51205689 30.2524199,0 19.5,0 C18.9240626,0 18.3689655,0.0297930289 17.8495946,0.0623221522 L16.2615614,0.21660748 C10.0788307,0.990162194 4.73983557,3.96733701 1.97491908,8.18928281 L1.16676082,9.61646009 L1.16214617,9.6254284 C0.391053925,11.2222435 0,12.8677004 0,14.5165013 C0,22.5212497 8.7478778,29.0334586 19.5005954,29.0334586 C20.9379828,29.0334586 22.4215167,28.9027341 23.9107072,28.6447812 C26.7899478,30.57996 30.1174043,31.621652 33.3772787,31.621652 C33.668299,31.621652 33.9591705,31.6132917 34.2487023,31.5965712 C35.1990213,31.5395692 35.9564185,30.8985631 36.178368,29.9635788 C36.4056765,29.0059457 36.0116454,28.060473 35.1746084,27.5549036" id="Fill-1" fill="#231916" mask="url(#mask-2)"></path>
                </g>
                <path d="M26.2433302,11.6657878 L28.0678595,15.9039019 L24.4189648,15.9039019 L26.2433302,11.6657878 Z M21.5337199,20.6120911 C21.9557109,20.7375121 22.4157369,20.5546206 22.5665651,20.2060787 L23.8386042,17.2512479 L28.6482202,17.2512479 L29.9196035,20.2060787 C30.0384626,20.480416 30.3484802,20.6516511 30.6793185,20.6516511 C30.7696515,20.6516511 30.8621157,20.6394742 30.9524487,20.6120911 C31.3716527,20.485656 31.589042,20.0997582 31.4390336,19.749864 L27.0030452,9.4455657 C26.8871371,9.17815867 26.5840052,9 26.2433302,9 C25.9028192,9 25.5990315,9.17815867 25.4837791,9.4455657 L21.0477908,19.749864 C20.8971265,20.0997582 21.1145159,20.485656 21.5337199,20.6120911 L21.5337199,20.6120911 Z" id="Fill-3" fill="#231916"></path>
                <path d="M13.7968382,10.3931823 C16.2236687,10.3931823 18.1983836,12.363606 18.1983836,14.7840874 C18.1983836,15.7183029 17.9037465,16.5823217 17.4088363,17.2968845 L16.1413119,16.4179661 C15.8249696,16.1983134 15.3896333,16.2775727 15.1696561,16.593074 C14.9495249,16.9087288 15.0277254,17.3431191 15.3451453,17.5627718 L16.4214788,18.3091305 C15.6867334,18.8617953 14.7841957,19.2014123 13.7968382,19.2014123 C11.3704696,19.2014123 9.39637038,17.219622 9.39637038,14.7840874 C9.39637038,12.363606 11.3704696,10.3931823 13.7968382,10.3931823 M13.7968382,20.5945946 C15.2621727,20.5945946 16.5989692,20.0425442 17.6205008,19.1401246 L18.4979467,19.7485474 C18.6187879,19.8331828 18.7582556,19.8728125 18.8954142,19.8728125 C19.1160072,19.8728125 19.3342911,19.7683622 19.4696025,19.5734396 C19.6897336,19.2577847 19.6115332,18.8233945 19.2945751,18.6037417 L18.5567509,18.0925498 C19.2092936,17.1529581 19.5941382,16.0135286 19.5941382,14.7847018 C19.5941382,11.5949748 16.993358,9 13.7968382,9 C10.6007802,9 8,11.5949748 8,14.7847018 C8,17.9880995 10.6007802,20.5945946 13.7968382,20.5945946" id="Fill-5" fill="#231916"></path>
            </g>
        </g>
    </g>
</svg>