<?xml version="1.0" encoding="UTF-8"?>
<svg width="30px" height="30px" viewBox="0 0 30 30" version="1.1" xmlns="http://www.w3.org/2000/svg" xmlns:xlink="http://www.w3.org/1999/xlink">
    <title>icon-member</title>
    <g id="組件" stroke="none" stroke-width="1" fill="none" fill-rule="evenodd">
        <g id="web-header-login" transform="translate(-1316, -35)" fill="#000000" fill-rule="nonzero">
            <g id="icon-member" transform="translate(1316, 35)">
                <path d="M19.1605839,15 C21.5693431,13.6071429 23.2116788,11.0357143 23.2116788,8.03571429 C23.2116788,3.64285714 19.4890511,0 15,0 C10.5109489,0 6.78832117,3.64285714 6.78832117,8.03571429 C6.78832117,11.0357143 8.43065693,13.6071429 10.8394161,15 C4.59854015,16.8214286 0,22.3928571 0,29.0357143 C0,29.5714286 0.437956204,30 0.98540146,30 C1.53284672,30 1.97080292,29.5714286 1.97080292,29.0357143 C1.97080292,21.9642857 7.77372263,16.2857143 15,16.2857143 C22.2262774,16.2857143 28.0291971,21.9642857 28.0291971,29.0357143 C28.0291971,29.5714286 28.4671533,30 29.0145985,30 C29.5620438,30 30,29.5714286 30,29.0357143 C30,22.3928571 25.4014599,16.8214286 19.1605839,15 Z M8.64963504,8.03571429 C8.64963504,4.60714286 11.4963504,1.82142857 15,1.82142857 C18.5036496,1.82142857 21.350365,4.60714286 21.350365,8.03571429 C21.350365,11.4642857 18.5036496,14.25 15,14.25 C11.4963504,14.25 8.64963504,11.4642857 8.64963504,8.03571429 Z" id="形狀"></path>
            </g>
        </g>
    </g>
</svg>