<?xml version="1.0" encoding="UTF-8"?>
<svg width="223px" height="40px" viewBox="0 0 223 40" version="1.1" xmlns="http://www.w3.org/2000/svg" xmlns:xlink="http://www.w3.org/1999/xlink">
    <title>logo_m</title>
    <g id="組件" stroke="none" stroke-width="1" fill="none" fill-rule="evenodd">
        <g id="web-header-login" transform="translate(-609, -30)" fill="#000000" fill-rule="nonzero">
            <g id="logo_m" transform="translate(609, 30)">
                <g id="XMLID_413_">
                    <path d="M40.7573964,1.91812865 L39.5266272,3.74269006 C47.8106509,7.11111111 51.1715976,13.2397661 51.1715976,19.7426901 C51.1715976,23.0175439 50.2721893,25.9649123 48.5207101,25.9649123 C42.7928994,25.9649123 30.4852071,25.9649123 26.8402367,25.9649123 C23.9053254,25.9649123 23.0059172,24.9356725 24.3313609,22.3157895 C26.6982249,17.6842105 33.7988166,8.84210526 38.2011834,3.50877193 C38.816568,2.71345029 39.3846154,1.49707602 37.0650888,0.888888889 C34.6982249,0.280701754 30.9112426,0 27.6923077,0 C11.3609467,0 0,8.70175439 0,19.9766082 C0,30.3157895 9.84615385,40 27.6449704,40 C35.5029586,40 45.1597633,37.8011696 50.6035503,31.6725146 L45.8698225,31.6725146 C40.5680473,36.4444444 33.6094675,37.5204678 27.6449704,37.5204678 C13.3017751,37.5204678 4.21301775,30.128655 4.21301775,19.9766082 C4.21301775,10.5730994 14.4852071,2.15204678 27.5029586,2.15204678 C29.0650888,2.15204678 29.5384615,2.47953216 27.9289941,4.49122807 C24.6153846,8.56140351 18.6982249,16.6549708 15.9053254,21.380117 C12.9230769,26.4327485 15.9526627,30.5497076 22.6745562,30.5497076 C27.4556213,30.5497076 44.4023669,30.5497076 49.7988166,30.5497076 C51.4556213,30.5497076 52.4497041,29.6140351 53.3964497,27.8830409 C54.2011834,26.5263158 55.3846154,23.7192982 55.3846154,19.9766082 C55.3846154,12.3976608 49.6094675,5.38011696 40.7573964,1.91812865 Z" id="XMLID_414_"></path>
                </g>
                <g id="XMLID_406_" transform="translate(62.1538, 11.0769)">
                    <path d="M153.156351,7.97972851 C149.319253,7.97972851 140.381623,7.97972851 134.953534,7.97972851 C135.561854,5.59058824 137.340021,3.96597285 140.755974,3.96597285 C144.780247,3.96597285 158.163295,3.96597285 158.163295,3.96597285 L158.163295,0 C158.163295,0 149.085284,0 139.632921,0 C129.104299,0 126.57743,7.64524887 126.57743,11.9934842 C126.57743,11.9934842 145.29498,11.9934842 149.132078,11.9934842 C152.220473,11.9934842 152.220473,16.2461538 149.225665,16.2461538 C146.13727,16.2461538 124.331324,16.2461538 124.331324,16.2461538 L124.331324,0 L116.844304,0 L116.844304,16.2461538 C116.844304,16.2461538 108.514995,16.2461538 104.397134,16.2461538 C101.074769,16.2461538 99.6709524,14.6215385 99.6709524,12.0890498 C99.6709524,9.03095023 99.6709524,0 99.6709524,0 L87.6449267,0 L76.8823356,6.92850679 L67.6171485,0 C57.1353206,0 57.1821145,0 40.9446401,0 C33.2236508,0 27.7487675,4.58714932 27.0936533,10.3688688 L32.1005978,10.3688688 C30.0884612,11.7067873 28.5442634,13.9047964 27.6551798,16.2939367 C19.9809844,16.2939367 13.6170174,16.2939367 11.8856441,16.2939367 C8.89083613,16.2939367 7.53381378,14.7171041 7.53381378,11.7545701 C7.53381378,9.79547511 7.53381378,0 7.53381378,0 L0,0 C0,0 0,5.35167421 0,9.98660633 C0,16.3417195 3.36915896,20.3076923 11.0433544,20.3076923 C17.500909,20.3076923 63.5928753,20.3076923 63.5928753,20.3076923 L74.4022603,13.3791855 L83.7142413,20.3076923 L94.8043895,20.3076923 L80.3450823,9.50877828 L92.0903448,1.95909502 C92.0903448,4.58714932 92.0903448,9.89104072 92.0903448,13.3791855 C92.0903448,16.9151131 96.5825567,20.3076923 100.653624,20.3076923 C105.988125,20.3076923 144.359102,20.3076923 153.156351,20.3076923 C162.32795,20.2599095 162.234363,7.97972851 153.156351,7.97972851 Z M62.2358529,16.2461538 C62.2358529,16.2461538 49.5079191,16.2461538 36.7331914,16.2461538 C37.0139546,14.0481448 38.0902138,11.8979186 41.5529605,11.8979186 C47.8233396,11.8979186 57.36929,11.8979186 57.36929,11.8979186 L57.36929,7.9319457 L36.3120465,7.9319457 C36.6863975,6.30733032 38.3241831,3.96597285 42.114487,3.96597285 C48.3848661,3.96597285 58.8199001,3.96597285 58.8199001,3.96597285 L58.8199001,1.7679638 L70.799132,10.7033484 L62.2358529,16.2461538 Z" id="XMLID_407_"></path>
                </g>
            </g>
        </g>
    </g>
</svg>