<?xml version="1.0" encoding="UTF-8"?>
<svg width="38px" height="38px" viewBox="0 0 38 38" version="1.1" xmlns="http://www.w3.org/2000/svg" xmlns:xlink="http://www.w3.org/1999/xlink">
    <title>verify@1x</title>
    <g id="0607-web" stroke="none" stroke-width="1" fill="none" fill-rule="evenodd">
        <g id="102_登入頁面_v2" transform="translate(-701, -394)" fill="#000000" fill-rule="nonzero">
            <g id="verify" transform="translate(701, 394)">
                <path d="M36.4856481,15.3371234 L34.5553683,13.4104159 C34.0800278,12.9366184 33.8134275,12.292718 33.8147207,11.6215829 L33.8147207,9.36433015 C33.8117995,6.50489952 31.4949744,4.1873282 28.6354901,4.18343135 L26.378194,4.18343135 C25.708527,4.18163255 25.0665061,3.91619281 24.5910943,3.44456554 L22.6625822,1.51432279 C20.6382824,-0.504774264 17.3617176,-0.504774264 15.3374178,1.51432279 L13.4106733,3.44456554 C12.9346827,3.91662332 12.2921847,4.18263269 11.621806,4.18519897 L9.36274225,4.18519897 C6.50325789,4.18909582 4.18643281,6.50666714 4.18351166,9.36609778 L4.18351166,11.6215829 C4.18527301,12.2924633 3.9193239,12.9363277 3.44463166,13.4104159 L1.51435186,15.3371234 C-0.504783954,17.3613844 -0.504783954,20.6378862 1.51435186,22.6621472 L3.44463166,24.5888547 C3.91997222,25.0626522 4.18657247,25.7065526 4.18527931,26.3776877 L4.18527931,28.6349404 C4.18820047,31.4943711 6.50502555,33.8119424 9.36450991,33.8158392 L11.621806,33.8158392 C12.2917247,33.8181083 12.9337806,34.0841976 13.4089057,34.5564727 L15.3374178,36.4849478 C17.3613154,38.5050174 20.6386846,38.5050174 22.6625822,36.4849478 L24.5893267,34.5564727 C25.0653173,34.0844149 25.7078153,33.8184055 26.378194,33.8158392 L28.6372577,33.8158392 C31.4967421,33.8119424 33.8135672,31.4943711 33.8164883,28.6349404 L33.8164883,26.3776877 C33.8151952,25.7065526 34.0817954,25.0626522 34.557136,24.5888547 L36.4856481,22.6621472 C38.504784,20.6378862 38.504784,17.3613844 36.4856481,15.3371234 L36.4856481,15.3371234 Z M25.2398239,16.3976964 L18.1692019,23.4681826 C17.921086,23.717314 17.5839556,23.8573607 17.2323445,23.8573607 C16.8807334,23.8573607 16.543603,23.717314 16.2954871,23.4681826 L12.7601761,19.9329395 C12.2734365,19.4105901 12.2877987,18.5966004 12.7926624,18.0917463 C13.2975262,17.5868923 14.1115315,17.5725304 14.6338909,18.0592606 L17.2323445,20.6594319 L23.3661091,14.5275527 C23.8884685,14.0408225 24.7024738,14.0551844 25.2073376,14.5600384 C25.7122013,15.0648925 25.7265635,15.8788822 25.2398239,16.4012316 L25.2398239,16.3976964 Z" id="形狀"></path>
            </g>
        </g>
    </g>
</svg>