<?xml version="1.0" encoding="UTF-8"?>
<svg width="135px" height="122px" viewBox="0 0 135 122" version="1.1" xmlns="http://www.w3.org/2000/svg" xmlns:xlink="http://www.w3.org/1999/xlink">
    <title>群組</title>
    <defs>
        <polygon id="path-1" points="0 88.416 108.823 88.416 108.823 0 0 0"></polygon>
    </defs>
    <g id="mobile" stroke="none" stroke-width="1" fill="none" fill-rule="evenodd">
        <g id="032_我的優惠-已兌換" transform="translate(-223, -299)">
            <g id="群組" transform="translate(290.4115, 360.208) rotate(-21) translate(-290.4115, -360.208)translate(236, 316)">
                <path d="M39.4448,43.341 L39.4448,33.978 L22.5698,33.978 L22.5698,36.006 L37.2828,36.006 L37.2828,41.312 L25.6248,41.312 L25.6248,38.258 L23.4838,38.258 L23.4838,49.85 C23.4838,51.812 24.4198,52.793 26.3138,52.793 L38.6208,52.793 C39.5348,52.748 40.2478,52.481 40.7828,51.99 C41.2518,51.478 41.6308,49.806 41.8978,46.996 L39.8238,46.328 C39.6908,48.669 39.4678,50.006 39.1108,50.341 C38.7988,50.609 38.4198,50.742 38.0188,50.742 L26.8938,50.742 C26.0468,50.742 25.6248,50.319 25.6248,49.471 L25.6248,43.341 L39.4448,43.341 Z" id="Fill-1" fill="#D54C34"></path>
                <mask id="mask-2" fill="white">
                    <use xlink:href="#path-1"></use>
                </mask>
                <g id="Clip-4"></g>
                <path d="M49.951,44.077 L58.801,44.077 L58.801,40.443 L49.951,40.443 L49.951,44.077 Z M50.843,33.197 C49.572,36.185 47.298,38.347 43.998,39.64 L45.224,41.423 C46.162,41.023 47.052,40.531 47.878,39.996 L47.878,46.083 L50.753,46.083 C50.263,48.669 48.167,50.519 44.511,51.634 L45.671,53.506 C49.951,51.945 52.335,49.471 52.826,46.083 L55.904,46.083 L55.904,50.809 C55.904,52.369 56.638,53.15 58.132,53.15 L61.945,53.15 C62.703,53.15 63.283,52.971 63.638,52.637 C64.041,52.258 64.33,51.121 64.486,49.226 L62.501,48.602 C62.457,49.806 62.345,50.541 62.189,50.786 C62.056,51.01 61.833,51.121 61.542,51.121 L58.779,51.121 C58.222,51.121 57.955,50.854 57.955,50.363 L57.955,46.083 L60.875,46.083 L60.875,39.35 C61.521,40.109 62.123,40.844 62.658,41.602 L64.419,40.398 C62.835,38.28 60.562,35.828 57.619,33.064 L56.037,34.223 C57.552,35.672 58.89,37.076 60.093,38.436 L49.75,38.436 C51,37.188 51.957,35.716 52.648,33.978 L50.843,33.197 Z" id="Fill-3" fill="#D54C34" mask="url(#mask-2)"></path>
                <path d="M80.6304,50.1174 C82.5034,50.9424 84.3314,52.0794 86.1144,53.5064 L87.2064,51.8344 C85.5134,50.5864 83.6614,49.5154 81.6344,48.6244 L80.6304,50.1174 Z" id="Fill-5" fill="#D54C34" mask="url(#mask-2)"></path>
                <path d="M80.2515,42.8283 C81.0995,43.4303 81.8335,44.0763 82.4375,44.7453 L83.4625,43.5183 C82.7475,42.8063 81.8785,42.1373 80.8975,41.5353 C81.0755,41.1113 81.2315,40.6423 81.3665,40.1523 L79.8275,39.9303 C79.4485,41.5353 78.5585,42.8063 77.1755,43.6973 L78.1795,44.9683 C79.0035,44.4773 79.6945,43.7643 80.2515,42.8283" id="Fill-6" fill="#D54C34" mask="url(#mask-2)"></path>
                <path d="M77.8003,35.9172 L81.4543,35.9172 C80.8763,36.6302 80.2963,37.2762 79.7163,37.8342 L76.1953,37.8342 C76.7513,37.2552 77.2863,36.6082 77.8003,35.9172 L77.8003,35.9172 Z M83.8863,39.5512 L83.8863,46.1722 L81.2103,46.1722 C81.2773,45.7712 81.3433,45.3692 81.3883,44.9452 L79.5153,44.7452 C79.4483,45.2352 79.3593,45.7262 79.2473,46.1722 L76.6853,46.1722 L76.6853,39.5512 L83.8863,39.5512 Z M66.5193,44.3892 L67.0323,46.4172 C67.7673,46.1942 68.5033,45.9272 69.2613,45.6592 L69.2613,50.5412 C69.2613,51.0542 69.0383,51.3212 68.6363,51.3212 C68.1013,51.3212 67.5663,51.2762 66.9873,51.2102 L67.4543,53.2612 L69.3723,53.2612 C70.6653,53.2612 71.3123,52.5252 71.3123,51.0762 L71.3123,44.8122 C71.9803,44.5002 72.6713,44.1882 73.3413,43.8312 L73.3413,41.7582 C72.6713,42.1142 72.0033,42.4492 71.3123,42.7612 L71.3123,38.8822 L73.0733,38.8822 L73.0733,38.1902 L74.2553,39.5962 C74.4333,39.4622 74.6113,39.3062 74.8123,39.1492 L74.8123,46.1722 L73.3633,46.1722 L73.3633,48.0442 L78.5133,48.0442 C78.2903,48.4452 77.9993,48.8472 77.6653,49.2032 C76.6853,50.2302 75.0343,51.0102 72.7613,51.5442 L73.5403,53.3502 C76.2613,52.6372 78.1343,51.6562 79.2043,50.4302 C79.7823,49.7382 80.2733,48.9372 80.6543,48.0442 L87.1183,48.0442 L87.1183,46.1722 L85.7803,46.1722 L85.7803,37.8342 L82.1463,37.8342 C82.7473,37.2102 83.3513,36.4752 83.9293,35.6272 L83.9293,34.1782 L78.9373,34.1782 L79.4483,33.2642 L77.5323,32.8412 C76.3063,35.0252 74.8123,36.7422 73.0733,38.0132 L73.0733,36.8542 L71.3123,36.8542 L71.3123,32.9522 L69.2613,32.9522 L69.2613,36.8542 L66.9193,36.8542 L66.9193,38.8822 L69.2613,38.8822 L69.2613,43.5862 C68.3683,43.8972 67.4543,44.1652 66.5193,44.3892 L66.5193,44.3892 Z" id="Fill-7" fill="#D54C34" mask="url(#mask-2)"></path>
                <path d="M77.6903,27.0049 C72.4093,19.8789 63.9423,15.2489 54.4113,15.2489 C44.8813,15.2489 36.4133,19.8789 31.1333,27.0049 L15.8833,27.0049 C22.4813,12.2849 37.2633,1.9999 54.4113,1.9999 C71.5593,1.9999 86.3403,12.2849 92.9393,27.0049 L77.6903,27.0049 Z M33.6723,27.0049 C38.6213,21.0489 46.0803,17.2489 54.4113,17.2489 C62.7423,17.2489 70.2023,21.0489 75.1513,27.0049 L33.6723,27.0049 Z M95.1343,27.0049 C88.4113,11.1499 72.6883,-0.0001 54.4113,-0.0001 C36.1343,-0.0001 20.4113,11.1499 13.6883,27.0049 L0.0003,27.0049 L0.0003,28.0049 L0.0003,29.0049 L12.8973,29.0049 L15.0473,29.0049 L29.7783,29.0049 L32.1623,29.0049 L76.6603,29.0049 L79.0453,29.0049 L93.7753,29.0049 L95.9243,29.0049 L108.8233,29.0049 L108.8233,28.0049 L108.8233,27.0049 L95.1343,27.0049 Z" id="Fill-8" fill="#D54C34" mask="url(#mask-2)"></path>
                <path d="M54.4111,86.416 C37.2631,86.416 22.4821,76.131 15.8831,61.411 L31.1331,61.411 C36.4131,68.537 44.8811,73.167 54.4111,73.167 C63.9421,73.167 72.4101,68.537 77.6901,61.411 L92.9391,61.411 C86.3401,76.131 71.5591,86.416 54.4111,86.416 L54.4111,86.416 Z M75.1511,61.411 C70.2021,67.367 62.7431,71.167 54.4111,71.167 C46.0801,71.167 38.6211,67.367 33.6721,61.411 L75.1511,61.411 Z M93.7751,59.411 L79.0451,59.411 L76.6601,59.411 L32.1631,59.411 L29.7781,59.411 L15.0471,59.411 L12.8971,59.411 L0.0001,59.411 L0.0001,60.411 L0.0001,61.411 L13.6881,61.411 C20.4111,77.266 36.1341,88.416 54.4111,88.416 C72.6881,88.416 88.4111,77.266 95.1341,61.411 L108.8231,61.411 L108.8231,60.411 L108.8231,59.411 L95.9251,59.411 L93.7751,59.411 Z" id="Fill-9" fill="#D54C34" mask="url(#mask-2)"></path>
            </g>
        </g>
    </g>
</svg>