<?xml version="1.0" encoding="UTF-8"?>
<svg width="144px" height="105px" viewBox="0 0 144 105" version="1.1" xmlns="http://www.w3.org/2000/svg" xmlns:xlink="http://www.w3.org/1999/xlink">
    <title>畫板</title>
    <defs>
        <polygon id="path-1" points="0 0 117 0 117 46 0 46"></polygon>
    </defs>
    <g id="畫板" stroke="none" stroke-width="1" fill="none" fill-rule="evenodd">
        <g id="群組copy" transform="translate(71.5, 52) rotate(-24) translate(-71.5, -52)translate(13, 29)">
            <g id="群組">
                <mask id="mask-2" fill="white">
                    <use xlink:href="#path-1"></use>
                </mask>
                <g id="Clip-2"></g>
                <path d="M115.827122,40.0357709 C115.120474,40.424718 114.538528,40.7452911 113.649882,41.2339969 C114.134088,39.2186457 114.134088,39.2186457 115.827122,40.0357709 M76.3694296,42.6048393 C76.4682929,42.490509 76.5525514,42.3941129 76.6413037,42.2921124 L23.367465,41.6453617 L3.27012842,41.4010088 L3.61952032,5.48561125 C3.44538609,5.58088647 3.27799254,5.67391993 3.08475973,5.77928312 C3.15216652,5.14598309 3.35101658,4.85679476 3.626261,4.7413436 L3.63974236,3.42094106 L3.6408658,3.26289627 L6.31916254,3.29540193 L9.7400575,3.33687468 C9.50862749,3.06562051 9.26596302,2.7820366 8.98173103,2.44913375 C9.41538142,2.17900046 9.8389208,1.91559249 10.3680642,1.58717318 C10.508495,2.51750774 10.2152754,3.49043593 11.6398057,3.35256707 C11.8656185,3.33014937 12.0948016,3.34023734 12.3239847,3.36825946 L91.1494933,4.32437438 L113.729647,4.5989912 L113.35891,42.7382246 L77.4265928,42.3010795 C77.5254561,42.7483126 77.2884089,42.7214113 76.3694296,42.6048393 M17.3985931,1.78669071 C18.32656,2.13752772 18.105241,1.92119691 18.0288467,2.73383854 C17.0233619,2.38860596 17.2031134,2.61838739 17.3985931,1.78669071 M116.160785,5.23789566 C116.425919,5.26928044 116.693299,5.30739053 116.961803,5.34662151 L117,1.39886449 L96.90154,1.15787422 L70.7769123,0.844026414 L70.4971741,0.840663759 L15.8313851,0.184946027 C15.8976684,0.275737713 15.9527173,0.349716124 16.0257413,0.450595775 C15.0809227,0.794707473 14.211375,1.11191793 13.1002863,1.51655742 C13.0272623,1.02112625 12.960979,0.572772241 12.8980659,0.150198592 L6.2820888,0.0706157557 C6.63709794,0.279100368 6.95952712,0.46965082 7.26847494,0.651234192 C7.03929183,1.08501669 7.42351057,0.996466776 5.43051627,1.0995882 C5.37883772,1.07604961 5.32940607,1.05363191 5.27772753,1.03009333 C5.48556515,0.688223397 5.6675635,0.387826214 5.86304322,0.0650113307 L3.11509279,0.0325056653 L2.71514579,0.0269012403 L2.40619797,0.0235385852 L0.869322994,0.00560442506 L0.434549152,0 L0.4019692,3.27410512 C0.39859886,3.2830722 0.397475414,3.29203928 0.394105074,3.30100636 C0.397475414,3.29988547 0.39859886,3.29988547 0.4019692,3.29876459 L0.263785266,17.5586637 C0.450277405,17.6214333 0.659238476,17.692049 0.933359451,17.7839616 C0.716534254,18.1269524 0.581720659,18.4979654 0.464882211,18.4923609 C0.397475414,18.4889983 0.326698277,18.4777894 0.254797693,18.4609761 L-0.000224689324,44.6011355 L4.17787329,44.6504544 C4.12619474,44.6325203 4.08350377,44.6168279 4.03182523,44.5977729 C5.60128015,42.52974 7.36621479,43.16304 7.68302674,44.4823217 C7.6965081,44.5406077 7.68976742,44.6179488 7.68302674,44.6930481 L17.6154183,44.8118619 L21.3913224,44.8578182 C21.3227921,44.4946514 21.2565088,44.1505397 21.1902254,43.8053071 C21.7092578,44.3164307 21.9384409,44.5518166 21.9586629,44.8645435 L71.4060424,45.4574917 C71.6700524,45.0371598 72.2194178,45.0438851 73.1619895,45.2859962 C73.1226688,45.3532493 73.087842,45.4126563 73.0496448,45.4776676 L116.565226,46 L116.630386,39.2926241 L116.644991,37.8063306 L116.937087,7.86300836 C116.813508,7.93026146 116.695546,7.99639367 116.56972,8.06588855 C116.669707,7.63210605 116.738237,7.33731329 116.841594,6.89456371 C116.558485,6.88447574 116.206847,6.97526743 116.068663,6.84412388 C114.955327,5.78376666 116.021478,5.22108239 116.160785,5.23789566" id="Fill-1" fill="#262832" mask="url(#mask-2)"></path>
            </g>
            <path d="M33.8618374,22.0935339 C32.4897502,22.8347184 32.4897502,22.8347184 31.5192494,21.2054381 C32.4250501,21.5489677 33.0497402,21.7853514 33.8618374,22.0935339 M30.9681835,11.5479481 C31.9721498,10.8642026 31.7356599,10.88519 32.0636222,11.2662759 C31.1288181,12.0936189 31.3664234,12.0615856 30.9681835,11.5479481 M34.3337016,32.6092957 C33.9008805,32.9760218 33.436825,33.1604895 32.9426505,33.1604895 L17.5708111,33.1604895 C16.4575241,33.1604895 15.9008805,32.6092957 15.9008805,31.506908 L15.9008805,23.3295778 L26.7615647,23.3295778 C27.3416341,22.8579149 27.1096064,22.9263999 27.735412,23.3295778 L34.9840486,23.3295778 L34.9840486,10.2224319 L11.3852633,10.2224319 L11.3852633,10.726128 C12.4450055,12.1632085 12.6736867,12.676846 11.8125067,13.2843743 L24.9956996,13.2843743 L27.7577224,13.2843743 L31.7055409,13.2843743 L31.7055409,18.7355596 C31.7947824,18.7079447 31.8851393,18.6803297 31.9754963,18.6516102 C31.8795618,18.9774663 31.7925513,19.2293144 31.7055409,19.4491291 L31.7055409,20.2665308 L15.9008805,20.2665308 L15.9008805,16.224811 L12.6837264,16.224811 L12.6837264,32.0890306 C12.6837264,34.8449996 13.9833049,36.2224319 16.6427001,36.2224319 L27.1821151,36.2224319 L28.7739594,36.2224319 L33.7368994,36.2224319 L33.839527,36.2224319 C35.0766366,36.161679 36.0973357,35.7938483 36.8391552,35.1200442 C36.9975588,34.9477271 37.1503848,34.6638457 37.2965176,34.2783415 C37.719299,33.1582803 38.0863044,31.1446003 38.3852633,28.2295693 L35.2305781,27.2497919 C35.0454021,30.3735917 34.7665226,32.1807121 34.3337016,32.6092957" id="Fill-3" fill="#262832"></path>
            <path d="M60.3532501,25.1249848 L71.4726513,25.1249848 L71.4726513,21.9621289 L59.6365677,21.9621289 L58.8367092,21.9621289 C59.0258495,20.7410406 59.1523229,19.4566952 59.2161292,18.1102222 L59.2161292,16.8258768 L69.0252209,16.8258768 L69.4194531,16.8258768 L69.4194531,16.6101248 L69.4194531,13.6313923 L59.2161292,13.6313923 L59.2161292,8.4330127 L55.8674337,8.4330127 L55.8674337,13.6313923 L50.8130568,13.6313923 C51.2551439,12.5978162 51.6972309,11.5009829 52.1404574,10.3115232 L49.0435691,9.0904349 C47.7765567,12.9197497 45.8384379,15.9978863 43.2451643,18.3960088 C43.1232485,18.5078384 43.0081692,18.6264455 42.8839746,18.7360159 L43.2007277,19.0116362 L45.6948735,21.1793221 C46.9596072,19.9887327 48.096728,18.5168751 49.1392787,16.8258768 L55.8674337,16.8258768 L55.8674337,18.1102222 C55.8036273,19.4566952 55.6463901,20.7410406 55.4253466,21.9621289 L43.5790084,21.9621289 L43.5790084,25.1249848 L53.8552539,25.1249848 L54.6357426,25.1249848 C54.1936556,26.3155741 53.6558589,27.4429064 53.0246315,28.4448539 C52.3922647,29.3620822 51.5354362,30.2228308 50.4609823,31.0259703 C50.3812243,31.0858386 50.2912117,31.1423182 50.209175,31.201057 C48.4112023,32.4921799 46.0389722,33.6341968 43.0731149,34.6146822 L44.8745058,37.4025137 C49.8024093,35.8357705 53.3402452,33.6127346 55.5199168,30.6678898 C56.4040909,29.4151729 57.1629311,27.9433154 57.7633947,26.3155741 C59.5636461,30.9186591 63.6700425,34.6146822 70.05182,37.4330127 L71.8839746,34.5197965 C65.6924769,32.2335035 61.8378878,29.1022761 60.3532501,25.1249848" id="Fill-5" fill="#262832"></path>
            <path d="M85.351597,17.0634211 C86.1846584,17.8318477 86.9568172,18.6211838 87.6941745,19.4209747 C87.7681277,19.5014766 87.8333806,19.5830239 87.9062463,19.6635257 C88.3956427,20.204038 88.8850391,20.7445503 89.3320211,21.2955173 L91.351597,19.3530186 C89.7539896,17.526568 88.3967302,16.1653553 87.2515426,15.2955173 L85.351597,17.0634211 Z" id="Fill-7" fill="#262832"></path>
            <path d="M78.4060999,36.1060125 C78.4451998,35.7033452 78.4753626,35.2983836 78.5390396,34.8991579 C78.5446253,34.8704779 78.9043444,34.8578587 78.9088129,34.8785083 C78.9881299,35.2685564 79.0395183,35.6654876 79.0976096,36.0612717 C78.8663616,36.0761853 78.6362308,36.0910989 78.4060999,36.1060125 M89.5897896,30.5856855 C88.8792885,29.7654374 88.141976,28.9497781 87.3745008,28.1455909 C87.2359754,28.0010437 87.10527,27.8530548 86.9645104,27.7096548 C87.7699684,26.0863667 88.4212611,24.3380337 88.978714,22.4290927 L86.284172,21.1878222 C85.8183246,22.6837711 85.2608717,24.0822081 84.6106961,25.4186962 C83.5583501,24.4332513 82.4434443,23.4787808 81.2659786,22.5243103 L79.2528921,24.8462433 C80.4918005,25.8638098 81.699429,27.0087156 82.9383374,28.2499861 C81.7497003,29.9616087 80.3320495,31.4093752 78.7133134,32.6414681 C78.34354,32.9236793 77.9614781,33.1932714 77.5682448,33.4502442 C77.1258573,33.7393386 76.6890555,34.0341691 76.2176224,34.2922891 L78.1379863,37.1878222 C80.9866936,35.5335596 83.3416249,33.3710874 85.2307089,30.6350151 C86.1288895,31.6216072 87.057233,32.7022697 88.0179735,33.879297 L90.2176224,31.3026856 C90.0143029,31.0629208 89.7975777,30.8243031 89.5897896,30.5856855" id="Fill-9" fill="#262832"></path>
            <path d="M94.6727353,20.5634812 L93.6563344,21.1581042 C94.3950302,19.6563144 95.0726308,17.998817 95.6891363,16.1212977 L99.7236371,16.1212977 C99.6658744,17.286849 99.5214677,18.3892146 99.3370715,19.4633723 C99.5492382,19.5446111 99.4570401,19.6021552 99.4003882,20.0568669 C99.3326282,20.0433271 99.2804196,20.0354289 99.2248786,20.0264024 C98.80721,22.1611779 98.1618232,24.1357324 97.2287338,25.9128314 C96.2123328,24.2237411 95.350336,22.4410005 94.6727353,20.5634812 M93.857393,16.9111195 C94.9037861,17.1751457 94.7049491,17.0036415 94.5971995,17.67499 C93.5608038,17.3026455 93.7018781,17.4831762 93.857393,16.9111195 M99.2004405,28.6975175 C101.325441,25.1940936 102.495135,21.0012681 102.679531,16.1212977 L104.713444,16.1212977 L104.713444,12.9304176 L96.5511331,12.9304176 C96.8588305,11.5854639 97.1365357,10.1773245 97.3831379,8.67666306 L94.2106339,8.11250463 C94.1162142,8.78046821 94.0084646,9.42699377 93.8929392,10.0633645 C94.9237808,9.76436051 94.7249439,9.77225873 94.8771264,10.3871914 C94.3272701,10.5225894 93.9962455,10.6184964 93.7751922,10.6737839 C92.872095,15.3348609 91.4235848,19.1485719 89.4374374,22.0968638 L91.4702393,24.6299352 C91.8390317,24.1300908 92.1778321,23.6291181 92.5477353,23.066088 C93.2864311,25.0688504 94.2417369,26.9768343 95.350336,28.7595749 C93.5641363,30.9180451 91.2236371,32.6703211 88.3288383,34.0468677 L90.1761331,37.0493189 C93.0098368,35.5170646 95.350336,33.6395453 97.2287338,31.4494823 C98.8916324,33.5154305 100.832236,35.4234143 103.080537,37.1125046 L105.186653,34.621181 L105.328838,34.4530618 C105.082236,34.2781727 104.855629,34.0897438 104.616802,33.9092131 C102.554008,32.3543924 100.745592,30.6314526 99.2004405,28.6975175" id="Fill-11" fill="#262832"></path>
            <path d="M85.7981763,14.0814157 L91.3564065,14.0814157 L91.3564065,11.1111723 L85.5723624,11.1111723 C85.1597077,10.0009829 84.7459067,8.98168623 84.3011566,8.08141571 L83.7200011,8.17339046 L80.8692446,8.62136161 C81.0354528,8.8767268 81.1924908,9.14291256 81.3518214,9.4069342 C81.6807989,9.94904421 81.9994601,10.5052209 82.2986348,11.1111723 L78.07924,11.1111723 L76.3564065,11.1111723 L76.3564065,12.0092787 L76.3564065,14.0814157 L85.4061543,14.0814157 L85.7981763,14.0814157 Z" id="Fill-13" fill="#262832"></path>
            <path d="M83.4724319,16.6402547 L80.9113514,15.308657 C79.6598168,18.0975826 78.2009463,20.4738844 76.4724319,22.4398483 L78.9153416,24.308657 C80.6427818,22.1540977 82.1618119,19.5869146 83.4724319,16.6402547" id="Fill-15" fill="#262832"></path>
        </g>
    </g>
</svg>