<?xml version="1.0" encoding="UTF-8"?>
<svg width="180px" height="179px" viewBox="0 0 180 179" version="1.1" xmlns="http://www.w3.org/2000/svg" xmlns:xlink="http://www.w3.org/1999/xlink">
    <title></title>
    <g id="mobile" stroke="none" stroke-width="1" fill="none" fill-rule="evenodd">
        <g id="602-核銷方式6-變動條碼兌換-step02" transform="translate(-92, -170)" fill="#525252" fill-rule="nonzero">
            <g id="" transform="translate(92.625, 170.3398)">
                <path d="M167.578125,65.9570312 L154.042969,65.9570312 L154.042969,88.0859375 L134.492188,88.0859375 L134.492188,65.9570312 L101.621094,65.9570312 L101.621094,44.0429688 L90.6640625,44.0429688 L90.6640625,35.6640625 L101.621094,35.6640625 L101.621094,24.4921875 L112.578125,24.4921875 L112.578125,10.9570312 L101.621094,10.9570312 L101.621094,0 L65.9570312,0 L65.9570312,13.5351562 L88.0859375,13.5351562 L88.0859375,21.9140625 L76.9140625,21.9140625 L76.9140625,46.6210938 L88.0859375,46.6210938 L88.0859375,65.9570312 L76.9140625,65.9570312 L76.9140625,77.1289062 L57.578125,77.1289062 L57.578125,65.9570312 L44.0429688,65.9570312 L44.0429688,77.1289062 L35.6640625,77.1289062 L35.6640625,65.9570312 L10.9570312,65.9570312 L10.9570312,77.1289062 L0,77.1289062 L0,90.6640625 L13.5351562,90.6640625 L13.5351562,79.7070312 L33.0859375,79.7070312 L33.0859375,90.6640625 L44.0429688,90.6640625 L44.0429688,112.578125 L57.578125,112.578125 L57.578125,90.6640625 L79.4921875,90.6640625 L79.4921875,79.4921875 L120.957031,79.4921875 L120.957031,88.0859375 L88.0859375,88.0859375 L88.0859375,101.621094 L99.0429688,101.621094 L99.0429688,123.535156 L123.535156,123.535156 L123.535156,110 L112.578125,110 L112.578125,101.621094 L156.621094,101.621094 L156.621094,90.6640625 L165,90.6640625 L165,101.621094 L178.535156,101.621094 L178.535156,88.0859375 L167.578125,88.0859375 L167.578125,65.9570312 Z M79.4921875,110 L65.9570312,110 L65.9570312,145.664062 L76.9140625,145.664062 L76.9140625,154.042969 L65.9570312,154.042969 L65.9570312,167.578125 L88.0859375,167.578125 L88.0859375,178.535156 L101.621094,178.535156 L101.621094,167.578125 L112.578125,167.578125 L112.578125,154.042969 L99.0429688,154.042969 L99.0429688,165 L90.6640625,165 L90.6640625,145.664062 L112.578125,145.664062 L112.578125,131.914062 L79.4921875,131.914062 L79.4921875,110 Z M0,99.0429688 L13.5351562,99.0429688 L13.5351562,112.578125 L0,112.578125 L0,99.0429688 Z M12.2460938,57.578125 L45.3320312,57.578125 C48.6263021,57.578125 51.4908854,56.3606771 53.9257812,53.9257812 C56.3606771,51.4908854 57.578125,48.6263021 57.578125,45.3320312 L57.578125,12.2460938 C57.578125,8.95182292 56.3606771,6.08723958 53.9257812,3.65234375 C51.4908854,1.21744792 48.6263021,0 45.3320312,0 L12.2460938,0 C8.95182292,0 6.08723958,1.21744792 3.65234375,3.65234375 C1.21744792,6.08723958 0,8.95182292 0,12.2460938 L0,45.3320312 C0,48.6263021 1.21744792,51.4908854 3.65234375,53.9257812 C6.08723958,56.3606771 8.95182292,57.578125 12.2460938,57.578125 Z M13.5351562,44.0429688 L13.5351562,13.5351562 L44.0429688,13.5351562 L44.0429688,44.0429688 L13.5351562,44.0429688 Z M21.9140625,21.9140625 L35.6640625,21.9140625 L35.6640625,35.6640625 L21.9140625,35.6640625 L21.9140625,21.9140625 Z M166.289062,0 L133.203125,0 C129.908854,0 127.044271,1.21744792 124.609375,3.65234375 C122.174479,6.08723958 120.957031,8.95182292 120.957031,12.2460938 L120.957031,45.3320312 C120.957031,48.6263021 122.174479,51.4908854 124.609375,53.9257812 C127.044271,56.3606771 129.908854,57.578125 133.203125,57.578125 L166.289062,57.578125 C169.726562,57.578125 172.626953,56.3606771 174.990234,53.9257812 C177.353516,51.4908854 178.535156,48.6263021 178.535156,45.3320312 L178.535156,12.2460938 C178.535156,8.95182292 177.353516,6.08723958 174.990234,3.65234375 C172.626953,1.21744792 169.726562,0 166.289062,0 Z M165,13.5351562 L165,44.0429688 L134.492188,44.0429688 L134.492188,13.5351562 L165,13.5351562 Z M143.085938,21.9140625 L156.621094,21.9140625 L156.621094,35.6640625 L143.085938,35.6640625 L143.085938,21.9140625 Z M166.289062,120.957031 L133.203125,120.957031 C129.908854,120.957031 127.044271,122.174479 124.609375,124.609375 C122.174479,127.044271 120.957031,129.908854 120.957031,133.203125 L120.957031,166.289062 C120.957031,169.726562 122.174479,172.626953 124.609375,174.990234 C127.044271,177.353516 129.908854,178.535156 133.203125,178.535156 L166.289062,178.535156 C169.726562,178.535156 172.626953,177.353516 174.990234,174.990234 C177.353516,172.626953 178.535156,169.726562 178.535156,166.289062 L178.535156,133.203125 C178.535156,129.908854 177.353516,127.044271 174.990234,124.609375 C172.626953,122.174479 169.726562,120.957031 166.289062,120.957031 Z M165,134.492188 L165,165 L134.492188,165 L134.492188,134.492188 L165,134.492188 Z M143.085938,143.085938 L156.621094,143.085938 L156.621094,156.621094 L143.085938,156.621094 L143.085938,143.085938 Z M45.3320312,120.957031 L12.2460938,120.957031 C8.95182292,120.957031 6.08723958,122.174479 3.65234375,124.609375 C1.21744792,127.044271 0,129.908854 0,133.203125 L0,166.289062 C0,169.726562 1.21744792,172.626953 3.65234375,174.990234 C6.08723958,177.353516 8.95182292,178.535156 12.2460938,178.535156 L45.3320312,178.535156 C48.6263021,178.535156 51.4908854,177.353516 53.9257812,174.990234 C56.3606771,172.626953 57.578125,169.726562 57.578125,166.289062 L57.578125,133.203125 C57.578125,129.908854 56.3606771,127.044271 53.9257812,124.609375 C51.4908854,122.174479 48.6263021,120.957031 45.3320312,120.957031 Z M44.0429688,134.492188 L44.0429688,165 L13.5351562,165 L13.5351562,134.492188 L44.0429688,134.492188 Z M21.9140625,143.085938 L35.6640625,143.085938 L35.6640625,156.621094 L21.9140625,156.621094 L21.9140625,143.085938 Z" id="形狀"></path>
            </g>
        </g>
    </g>
</svg>