<?xml version="1.0" encoding="UTF-8"?>
<svg width="23px" height="21px" viewBox="0 0 23 21" version="1.1" xmlns="http://www.w3.org/2000/svg" xmlns:xlink="http://www.w3.org/1999/xlink">
    <title>AR-Sprint-Bike-Online-Shopping-Cathay-Pacific-29拷貝</title>
    <g id="web" stroke="none" stroke-width="1" fill="none" fill-rule="evenodd">
        <g id="列表頁面" transform="translate(-501, -760)" fill="#989898" fill-rule="nonzero">
            <g id="AR-Sprint-Bike-Online-Shopping-Cathay-Pacific-29拷貝" transform="translate(501, 760)">
                <path d="M4.91103203,16.471158 L11.2135231,16.471158 L11.2135231,17.6842407 L4.91103203,17.6842407 L4.91103203,19.7060451 L13.0960854,19.7060451 L13.0960854,12.83191 L14.3238434,12.83191 L14.3238434,20.2721504 C14.3238434,20.5956391 14.0782918,20.9191278 13.7508897,20.9191278 C13.7508897,20.9191278 13.7508897,20.9191278 13.7508897,20.9191278 L4.33807829,20.9191278 C4.01067616,20.9191278 3.68327402,20.6765113 3.68327402,20.3530226 L3.68327402,20.3530226 L3.68327402,11.1335942 C1.55516014,10.8101055 0,9.03091758 0,6.92824094 C0,4.58294777 1.96441281,2.64201548 4.33807829,2.64201548 C4.41992883,2.64201548 4.58362989,2.64201548 4.66548043,2.64201548 C5.89323843,0.215850129 8.83985765,-0.673743835 11.2953737,0.539338843 C12.2775801,1.02457191 13.0142349,1.8332937 13.5053381,2.80375984 C14.0782918,2.64201548 14.7330961,2.64201548 15.3060498,2.72288766 C16.2882562,2.88463202 17.1886121,3.36986509 17.8434164,4.17858687 L16.9430605,4.98730866 C16.3701068,4.34033123 15.4697509,3.93597034 14.569395,3.93597034 C14.3238434,3.93597034 14.1601423,3.93597034 13.9145907,4.01684252 C13.9145907,4.17858687 13.9964413,4.50207559 13.9964413,4.8255643 C13.9964413,5.14905302 13.7508897,5.47254173 13.4234875,5.47254173 C13.0960854,5.47254173 12.7686833,5.22992519 12.7686833,4.90643648 L12.7686833,4.90643648 C12.7686833,2.88463202 11.1316726,1.26718845 9.08540925,1.26718845 C7.03914591,1.26718845 5.40213523,2.80375984 5.40213523,4.8255643 C5.40213523,4.8255643 5.40213523,4.8255643 5.40213523,4.8255643 C5.40213523,5.14905302 5.15658363,5.47254173 4.82918149,5.47254173 C4.41992883,5.47254173 4.17437722,5.14905302 4.17437722,4.8255643 C4.17437722,4.50207559 4.17437722,4.17858687 4.25622776,3.77422598 C2.53736655,3.85509816 1.22775801,5.14905302 1.22775801,6.84736876 C1.22775801,8.54568451 2.61921708,9.83963937 4.33807829,9.92051155 C4.66548043,9.92051155 4.91103203,10.1631281 4.91103203,10.4866168 L4.91103203,16.471158 Z M19.6441281,19.7869173 L22.2633452,19.7869173 L22.2633452,21 L15.797153,21 L15.797153,19.7869173 L18.4163701,19.7869173 L18.4163701,15.7433084 C16.4519573,15.4198197 15.0604982,13.4788874 15.0604982,11.2953386 C15.0604982,9.75876719 15.3060498,8.06045144 15.7153025,6.36213569 C15.797153,6.11951916 16.0427046,5.87690262 16.2882562,5.87690262 L21.8540925,5.87690262 C22.1814947,5.87690262 22.4270463,6.03864698 22.4270463,6.36213569 C22.7544484,7.57521837 22.9181495,8.86917323 23,10.0822559 C23,10.4866168 23,10.8909777 23,11.2953386 C23,13.5597596 21.5266904,15.4198197 19.6441281,15.7433084 L19.6441281,19.7869173 L19.6441281,19.7869173 Z M16.2882562,12.0231882 C16.6156584,13.4788874 17.6797153,14.5302257 18.9893238,14.5302257 C20.4626335,14.5302257 21.772242,13.0745265 21.772242,11.2144664 C21.772242,10.8909777 21.772242,10.4866168 21.772242,10.0822559 C21.6903915,9.03091758 21.5266904,7.97957926 21.2811388,7.00911312 L16.6975089,7.00911312 C16.4519573,8.30306798 16.2064057,9.59702283 16.2064057,10.8101055 L21.1992883,10.8101055 L21.1992883,12.0231882 C21.1992883,12.0231882 16.2882562,12.0231882 16.2882562,12.0231882 Z M6.38434164,9.83963937 L7.36654804,9.83963937 L7.36654804,14.2876092 L6.38434164,14.2876092 C6.38434164,14.2876092 6.38434164,9.83963937 6.38434164,9.83963937 Z M8.43060498,9.83963937 L9.41281139,9.83963937 L9.41281139,14.2876092 L8.43060498,14.2876092 C8.43060498,14.2876092 8.43060498,9.83963937 8.43060498,9.83963937 Z M10.4768683,9.83963937 L11.4590747,9.83963937 L11.4590747,14.2876092 L10.4768683,14.2876092 C10.4768683,14.2876092 10.4768683,9.83963937 10.4768683,9.83963937 Z" id="形狀"></path>
            </g>
        </g>
    </g>
</svg>