<?xml version="1.0" encoding="UTF-8"?>
<svg width="13px" height="21px" viewBox="0 0 13 21" version="1.1" xmlns="http://www.w3.org/2000/svg" xmlns:xlink="http://www.w3.org/1999/xlink">
    <title>AR-Sprint-Bike-Online-Shopping-Cathay-Pacific-32拷貝</title>
    <g id="web" stroke="none" stroke-width="1" fill="none" fill-rule="evenodd">
        <g id="列表頁面" transform="translate(-402, -761)" fill="#989898" fill-rule="nonzero">
            <g id="AR-Sprint-Bike-Online-Shopping-Cathay-Pacific-32拷貝" transform="translate(402, 761)">
                <path d="M8.44362781,4.65 L8.44362781,1.275 C8.44362781,1.125 8.36893318,1.05 8.29423856,1.05 L4.7088965,1.05 C4.63420188,1.05 4.55950725,1.125 4.55950725,1.275 L4.55950725,3.825 L3.51378249,3.825 L3.51378249,1.2 C3.51378249,0.525 3.96195024,0 4.55950725,0 L8.44362781,0 C9.04118482,0 9.48935257,0.525 9.48935257,1.2 L9.48935257,4.65 L10.2362988,4.65 C11.804886,4.65 13,6 13,7.575 L13,17.1 C13,18.675 11.8795806,19.95 10.3856881,20.025 L10.3856881,21 L9.2652687,21 L9.2652687,20.1 L2.91622548,20.1 L2.91622548,21 L1.87050071,21 L1.87050071,19.875 C0.750081322,19.5 0.00313506083,18.375 0.00313506083,17.1 L0.00313506083,7.65 C-0.0715595653,6 1.19824908,4.65 2.76683623,4.65 L8.44362781,4.65 Z M10.2362988,18.9 C11.1326343,18.9 11.8795806,18.075 11.8795806,17.1 L11.8795806,7.65 C11.8795806,6.675 11.1326343,5.85 10.2362988,5.85 L2.76683623,5.85 C1.87050071,5.85 1.12355445,6.675 1.12355445,7.65 L1.12355445,17.175 C1.12355445,18.15 1.87050071,18.975 2.76683623,18.975 L10.2362988,18.975 L10.2362988,18.9 Z M3.51378249,9.9 L3.51378249,8.775 L9.48935257,8.775 L9.48935257,9.9 L3.51378249,9.9 Z M3.51378249,15.9 L3.51378249,14.775 L9.48935257,14.775 L9.48935257,15.9 L3.51378249,15.9 Z M3.51378249,12.9 L3.51378249,11.775 L9.48935257,11.775 L9.48935257,12.9 L3.51378249,12.9 Z" id="形狀"></path>
            </g>
        </g>
    </g>
</svg>