<?xml version="1.0" encoding="UTF-8"?>
<svg width="21px" height="21px" viewBox="0 0 21 21" version="1.1" xmlns="http://www.w3.org/2000/svg" xmlns:xlink="http://www.w3.org/1999/xlink">
    <title>AR-Sprint-Bike-Online-Shopping-Cathay-Pacific-26拷貝</title>
    <g id="web" stroke="none" stroke-width="1" fill="none" fill-rule="evenodd">
        <g id="列表頁面" transform="translate(-605, -759)" fill="#989898" fill-rule="nonzero">
            <g id="AR-Sprint-Bike-Online-Shopping-Cathay-Pacific-26拷貝" transform="translate(605, 759)">
                <g id="icon_x2F_reward">
                    <path d="M17.7137405,7.08045977 L2.72519084,7.08045977 C2.08396947,7.08045977 1.60305344,7.56321839 1.60305344,8.20689655 L1.60305344,19.8735632 C1.60305344,20.5172414 2.08396947,21 2.72519084,21 L17.7137405,21 C18.3549618,21 18.8358779,20.5172414 18.8358779,19.8735632 L18.8358779,8.20689655 C18.8358779,7.56321839 18.3549618,7.08045977 17.7137405,7.08045977 Z M17.6335878,8.28735632 L17.6335878,19.7931034 L2.80534351,19.7931034 L2.80534351,8.28735632 L17.6335878,8.28735632 Z" id="Stroke-1"></path>
                    <path d="M19.8778626,2.89655172 C19.8778626,2.97701149 19.7977099,3.2183908 19.7175573,3.45977011 C19.5572519,3.94252874 19.3167939,4.34482759 19.0763359,4.82758621 C18.2748092,6.03448276 16.9923664,6.75862069 15.148855,6.75862069 L15.148855,7.96551724 C17.3931298,7.96551724 18.9961832,7.08045977 20.0381679,5.55172414 C20.6793893,4.66666667 20.9198473,3.7816092 21,3.13793103 L19.8778626,2.89655172 Z" id="Stroke-9"></path>
                    <path d="M0,2.97701149 C0.0801526718,3.62068966 0.400763359,4.5862069 1.04198473,5.47126437 C2.08396947,7 3.76717557,7.96551724 6.09160305,7.96551724 L6.09160305,6.75862069 C4.16793893,6.75862069 2.88549618,6.03448276 2.08396947,4.74712644 C1.76335878,4.34482759 1.52290076,3.86206897 1.36259542,3.37931034 C1.28244275,3.13793103 1.28244275,2.89655172 1.20229008,2.81609195 L0,2.97701149 Z" id="Stroke-11"></path>
                    <path d="M11.7022901,7.64367816 L11.7022901,5.55172414 C11.7022901,2.49425287 9.21755725,0 6.17175573,0 C4.64885496,0 3.44656489,1.20689655 3.44656489,2.73563218 C3.44656489,5.79310345 5.93129771,8.28735632 8.97709924,8.28735632 L11.0610687,8.28735632 C11.4618321,8.28735632 11.7022901,7.96551724 11.7022901,7.64367816 Z M8.97709924,7.08045977 C6.57251908,7.08045977 4.64885496,5.14942529 4.64885496,2.73563218 C4.64885496,1.93103448 5.29007634,1.20689655 6.17175573,1.20689655 C8.57633588,1.20689655 10.5,3.13793103 10.5,5.55172414 L10.5,7.08045977 L8.97709924,7.08045977 Z" id="Stroke-13"></path>
                    <path d="M11.0610687,8.28735632 C10.740458,8.28735632 10.4198473,8.04597701 10.4198473,7.64367816 L10.4198473,6.03448276 C10.4198473,3.62068966 12.4236641,1.6091954 14.8282443,1.6091954 C16.0305344,1.6091954 17.0725191,2.57471264 17.0725191,3.86206897 C17.0725191,6.27586207 15.0687023,8.28735632 12.6641221,8.28735632 L11.0610687,8.28735632 Z M12.7442748,7.08045977 C14.5076336,7.08045977 15.9503817,5.63218391 15.9503817,3.86206897 C15.9503817,3.29885057 15.4694656,2.81609195 14.9083969,2.81609195 C13.1450382,2.81609195 11.7022901,4.26436782 11.7022901,6.03448276 L11.7022901,7.08045977 L12.7442748,7.08045977 Z" id="Stroke-15"></path>
                </g>
                <path d="M8.2004941,11.683425 L9.50922566,9.23677279 C9.67281711,8.92107574 10.2453872,8.92107574 10.4089786,9.23677279 L11.7177102,11.683425 L14.5805605,12.0780463 C14.9895391,12.1569706 15.1531305,12.6305162 14.8259477,12.867289 L12.7810546,14.7614713 L13.2718289,17.4448963 C13.3536246,17.8395176 12.944646,18.1552147 12.5356674,17.9184419 L10,16.6556536 L7.46433259,17.9184419 C7.1371497,18.0762904 6.64637536,17.8395176 6.72817108,17.4448963 L7.21894542,14.7614713 L5.17405235,12.867289 C4.84686946,12.6305162 5.0104609,12.0780463 5.41943952,12.0780463 L8.2004941,11.683425 Z M8.9366556,12.3148191 C8.85485988,12.4726676 8.69126843,12.5515919 8.52767699,12.5515919 L6.40098819,12.867289 L7.95510693,14.2879257 C8.03690265,14.36685 8.11869837,14.5246985 8.11869837,14.682547 L7.79151548,16.6556536 L9.67281711,15.7085625 C9.83640855,15.6296382 10,15.6296382 10.0817957,15.7085625 L11.9630973,16.6556536 L11.6359145,14.682547 C11.6359145,14.5246985 11.6359145,14.36685 11.7995059,14.2879257 L13.3536246,12.867289 L11.2269358,12.6305162 C11.0633444,12.6305162 10.899753,12.5515919 10.8179572,12.3937434 L9.83640855,10.5784853 L8.9366556,12.3148191 Z" id="icon_x2F_whatsHot"></path>
            </g>
        </g>
    </g>
</svg>